<?xml version="1.0" encoding="utf-8"?>
<svg version="1.1" xmlns="http://www.w3.org/2000/svg" xmlns:xlink="http://www.w3.org/1999/xlink" x="0px" y="0px" xml:space="preserve">
	<symbol id="head_marker_blank" viewBox="0 0 60 60">
		<rect x="1" y="14" style="fill:#adc8d3;" width="45" height="45"/>
		<rect y="15" style="fill:#FFFFFF;" width="45" height="45"/>
		<rect x="14" y="23" style="fill:#a2c9d5;" width="24" height="2"/>
		<rect x="14" y="27" style="fill:#a2c9d5;" width="24" height="2"/>
		<rect x="8" y="31" style="fill:#a2c9d5;" width="30" height="2"/>
		<rect x="8" y="35" style="fill:#a2c9d5;" width="30" height="2"/>
		<rect x="8" y="39" style="fill:#D6E6E8;" width="30" height="2"/>
		<rect x="8" y="43" style="fill:#D6E6E8;" width="30" height="2"/>
		<rect x="8" y="47" style="fill:#D6E6E8;" width="30" height="2"/>
		<defs>
			<rect id="SVGID_1_" y="34" width="21" height="26"/>
		</defs>
		<clipPath id="SVGID_2_">
			<use xlink:href="#SVGID_1_"  style="overflow:visible;"/>
		</clipPath>
		<g style="clip-path:url(#SVGID_2_);">
			<path style="fill-rule:evenodd;clip-rule:evenodd;fill:#b6c8cd;" d="M-0.855,52.795c5.08,2.876,5.08,2.876,10.785,6.021
			c1.778,0.225,3.461-1.307,3.461-1.307l6.014-4.912c0,0,1.458-1.322,1.482-1.601c0.051-0.598-0.316-1.16-1.087-1.501
			c-0.592-0.496-1.794,0.248-1.794,0.248l-3.517,2.615l-2.105,1.897l5.002-8.416l2.729-4.977c0,0,0.465-0.792,0.302-1.412
			c-0.309-1.158-1.481-1.2-2.136-0.832c-0.524,0.296-0.825,0.986-0.825,0.986s-2.911,6.057-3.763,5.644
			c-0.85-0.417,4.281-8.126,3.902-9.27c-0.288-0.857-1.756-1.203-2.45-0.871c-0.676,0.325-4.278,8.988-5.165,8.453
			c-0.885-0.539,3.834-7.966,3.453-8.67c-0.247-0.452-0.986-0.665-0.986-0.665s-0.797-0.09-1.331,0.21
			c-0.614,0.341-3.938,8.261-4.73,7.929c-1.009-0.5,3.198-7.183,2.722-7.663c-0.278-0.281-1.184-0.743-2.033-0.183
			c-0.558,0.366-4.085,7.013-4.085,7.013s-3.234,5.818-4.224,9.053C-1.318,50.854-1.5,52.125-0.855,52.795z"/>
			<path style="fill:#7c8f9d;" d="M12.127,60.003c0,0-11.787-6.499-12.123-6.647c-0.003,6.638,0,0-0.003,6.638
			C12.127,60.003,12.127,60.003,12.127,60.003"/>
		</g>
		<defs>
			<rect id="SVGID_3_" x="30" y="13" width="30" height="47"/>
		</defs>
		<clipPath id="SVGID_4_">
			<use xlink:href="#SVGID_3_"  style="overflow:visible;"/>
		</clipPath>
		<g style="clip-path:url(#SVGID_4_);">
			<path style="fill-rule:evenodd;clip-rule:evenodd;fill:#b6c8cd;" d="M51.207,27.424l-4.76-6.161l-4.958-5.869
			c0,0-0.572-0.719-1.209-0.789c-1.192-0.128-1.652,0.95-1.545,1.694c0.088,0.595,0.623,1.125,0.623,1.125
			s4.605,4.895,3.913,5.541c-0.695,0.643-6.043-6.916-7.246-6.974c-0.904-0.039-1.754,1.206-1.694,1.973
			c0.06,0.748,6.849,7.224,6.03,7.859c-0.821,0.632-6.054-6.442-6.848-6.34c-0.51,0.068-0.975,0.681-0.975,0.681
			s-0.371,0.711-0.283,1.317c0.097,0.696,6.293,6.645,5.698,7.266c-0.83,0.761-5.552-5.567-6.171-5.296
			c-0.362,0.158-1.119,0.838-0.902,1.831c0.141,0.652,5.074,6.334,5.074,6.334s4.265,5.11,6.928,7.197
			c0.586,0.48,1.523,0.531,2.193,0.493c4.917-4.13,5.021-4.148,9.504-7.951c0.462-1.097,0.455-2.388,0.455-2.388L51.207,27.424z"
			/>
			<path style="fill:#7c8f9d;" d="M60,60h-2.628L44.674,44.894c0,0-2.621-3.022,0.545-5.684c3.166-2.662,6.093-5.121,9.163-7.702
			c3.071-2.581,5.644,0.481,5.644,0.481L60,60z"/>
		</g>
		<polygon style="fill:#2F4249;" points="30.77,34.757 35.245,38.947 28.542,41.011 			"/>
		<path style="fill:#74909f;" d="M54.645,15.423c-0.704-0.659-1.093-1.024-1.822-1.706c-0.729-0.683-3.439,0.04-4.304,0.965
		c-0.535,0.57-16.687,17.798-16.687,17.798l5.447,5.101c0,0,16.091-17.219,16.641-17.806
		C54.82,18.814,55.348,16.083,54.645,15.423z"/>
		<rect x="49.684" y="14.956" transform="matrix(-0.6836 0.7299 -0.7299 -0.6836 97.5855 -4.9332)" style="fill:#2F4249;" width="0.357" height="7.462"/>
		<path style="fill:#2F4249;" d="M51.841,22.032l-6.547-6.131l1.185-1.259c0.253-0.269,0.255-0.678,0.004-0.913
		c-0.251-0.236-0.659-0.21-0.912,0.059l-9.402,9.995c-0.253,0.269-0.255,0.678-0.004,0.913c0.251,0.236,0.659,0.209,0.912-0.059
		l6.404-6.808l6.55,6.134L51.841,22.032z"/>
		<path style="fill-rule:evenodd;clip-rule:evenodd;fill:#b6c8cd;" d="M51.207,27.424l-2.124-6.727c0,0-0.458-1.198,0.35-1.905
		c0.729-0.731,1.551-0.777,2.137-0.236c0.115,0.106,0.616,1.72,0.616,1.72l2.85,8.689L51.207,27.424z"/>
	</symbol>
	<symbol id="shuffle_icon" viewBox="0 0 33.75 29.313">
		<path d="M11.244,6.225c-0.105-0.069-2.306-1.863-6.306-1.863c0,0-2-0.009-4,0.013c0,2.062,0,4.374,0,4.374
			h4.231c1.612,0,3.01,0.284,4.252,1.268c1.427,1.597,1.986,2.138,2.505,2.716c1.472-1.595,1.414-1.637,2.697-3.088
			C13.402,8.255,11.651,6.414,11.244,6.225z"/>
		<path d="M26.938,20.518c-1-0.117-2.052-0.404-2.897-0.826c-0.358-0.144-1.014-0.68-1.78-1.457
			c-1.202-1.447-2.411-2.788-3.576-4.093c0.248-0.276,0.501-0.569,0.79-0.889c0.784-0.87,1.223-1.269,3.128-3.401
			c1.242-0.985,2.334-1.552,4.334-1.435v3.991L32.9,6.454L26.938,0.5v3.862c-4,0-6.173,1.794-6.278,1.863
			c-0.471,0.218-2.745,2.586-3.938,3.991c-1.03,1.213-2.087,2.394-3.164,3.601c-1.257,1.408-2.542,2.851-3.843,4.418
			c-0.766,0.777-1.378,1.429-1.736,1.573c-0.845,0.421-1.77,0.942-2.81,0.942H0.938v4h4.231c1.493,0,2.824-0.515,4.025-1.009
			c0.725-0.37,1.403-0.847,2.04-1.3c1.324-1.214,2.535-2.589,3.68-3.957c0.448-0.535,0.9-1.072,1.054-1.258
			c0.318,0.373,0.662,0.773,1.049,1.236c1.145,1.368,2.356,2.709,3.68,3.923c0.637,0.453,1.402,0.868,2.127,1.238
			c1.201,0.494,2.112,0.809,4.112,0.886V28.5l5.963-5.954l-5.963-5.954V20.518z"/>
	</symbol>
	<symbol id="upload_icon" viewBox="0 0 60 65">
		<path d="M54,59c-13.41,0-44.884,0-48.02,0C2.644,59,0,56.654,0,52.986c0,2.235,0,4.269,0,6
			C0,62.654,2.644,65,5.98,65c3.136,0,34.61,0,48.02,0c3.68,0,6-2.338,6-5.994c0-1.731,0-3.764,0-6C60,56.662,57.68,59,54,59z"/>
		<path d="M41.371,37.858C41.117,37.766,40.837,38,40.572,38c-0.496,0-0.992,0-1.488,0
			c-0.899,0-1.798,0-2.697,0C36.378,38,36,38,36,38s0-19.434,0-20.114c0-0.68-0.28-0.9-0.76-0.92c-0.48-0.02-9.65-0.001-10.47,0
			c-0.82,0.001-0.77,0.42-0.77,0.96C24,18.466,24,38,24,38c-2,0-3.493,0-5.06,0c-0.772,0-1.059,0.472-0.837,1.147
			c0.22,0.671,0.789,1.111,1.226,1.654c0.354,0.44,0.708,0.831,1.063,1.271c0.936,1.161,1.874,2.297,2.82,3.449
			c1.402,1.707,2.815,3.393,4.221,5.097c0.313,0.379,0.625,0.752,0.938,1.131c0.311,0.377,0.588,0.835,1.033,1.052
			c0.396,0.193,0.914,0.119,1.166,0.042c0.252-0.077,0.751-0.662,1.07-1.048c1.084-1.315,2.174-2.625,3.266-3.934
			c1.87-2.243,3.72-4.501,5.526-6.796c0.315-0.401,0.63-0.802,0.943-1.204c0.275-0.352,0.507-0.593,0.579-1.044
			C42.027,38.35,41.825,38.022,41.371,37.858z"/>
	</symbol>
	<symbol id="delphoto_icon" viewBox="0 0 94 81">
			<path d="M61.421,36.793v-0.012H32.093v0.011c-1.152,0.06-2.07,1.004-2.07,2.171
				c0,1.167,0.918,2.111,2.07,2.171v0.011h1.688v21.616h25.977V41.145h1.663v-0.012c1.147-0.064,2.06-1.006,2.06-2.17
				C63.481,37.799,62.568,36.857,61.421,36.793z M40.861,57.323c0,1.263-0.735,2.286-1.642,2.286c-0.907,0-1.642-1.023-1.642-2.286
				v-12.85c0-1.263,0.735-2.286,1.642-2.286c0.907,0,1.642,1.023,1.642,2.286V57.323z M48.412,57.323
				c0,1.263-0.735,2.286-1.642,2.286c-0.907,0-1.642-1.023-1.642-2.286v-12.85c0-1.263,0.735-2.286,1.642-2.286
				c0.907,0,1.642,1.023,1.642,2.286V57.323z M56.134,57.323c0,1.263-0.735,2.286-1.642,2.286c-0.907,0-1.642-1.023-1.642-2.286
				v-12.85c0-1.263,0.735-2.286,1.642-2.286c0.907,0,1.642,1.023,1.642,2.286V57.323z"/>
			<path d="M60.575,31.133c-0.281,0-9.211,0.187-9.211,0.187c-0.55,0.012-1-0.429-1-0.979v-1.118
				c0-0.55-0.45-1-1-1h-6.332c-0.55,0-1,0.45-1,1v1.118c0,0.55-0.45,0.989-1,0.976c0,0-7.813-0.184-8.094-0.184
				c-0.898,0-1.626,0.744-1.626,1.662c0,0.918,0.716,1.246,0.716,1.246c0.5,0.229,1.359,0.416,1.909,0.416h25.636
				c0.55,0,1.409-0.187,1.909-0.416c0,0,0.716-0.328,0.716-1.246C62.2,31.877,61.473,31.133,60.575,31.133z"/>
	</symbol>
	<symbol id="editphoto_icon" viewBox="0 0 30 30">
		<rect x="10.841" y="8.436" transform="matrix(0.7071 0.7071 -0.7071 0.7071 13.9136 -3.8625)" width="1.557" height="12.856"/>
		<polygon points="17.308,11.462 8.217,20.553 9.633,21.969 18.699,12.902 19.292,13.495 10.225,22.562
				11.343,23.679 20.434,14.589"/>
		<polygon points="10.007,24.99 5.198,24.99 5.198,20.182"/>
		<path d="M24.763,7.076c-0.623-0.623-0.968-0.968-1.613-1.613c-0.646-0.646-2.651-0.558-3.207-0.002
			c-0.557,0.557-1.359,1.359-1.359,1.359l0.003,0.003l-1.618,1.618l4.82,4.82l1.647-1.647L23.41,11.59
			c0.135-0.135,0.802-0.802,1.32-1.32C25.309,9.692,25.387,7.699,24.763,7.076z"/>
	</symbol>
</svg>
