<?xml version="1.0" encoding="utf-8"?>
<svg version="1.1" xmlns="http://www.w3.org/2000/svg" xmlns:xlink="http://www.w3.org/1999/xlink" x="0px" y="0px" xml:space="preserve">
	<symbol id="home" viewBox="0 0 60 50">
		<polygon points="30,12.5 16.569,25.655 19.845,27.374 29.914,16.805 40.155,27.374 43.431,25.655 30,12.5"/>
		<polygon points="20.563,28.224 20.563,28.224 30.017,18.77 39.443,28.224 39.443,28.224 39.443,37.5
		32.557,37.5 32.557,30.948 27.391,30.948 27.391,37.5 20.563,37.5 20.563,28.224"/>
	</symbol>
	<symbol id="wheel_colored" viewBox="0 0 56 36">
		<path style="fill:#F0BB44;" d="M35.681,28.661l-3.673-5.22c-0.781,0.587-1.844,0.991-2.841,1.153L30,30.967v0.002
			c2-0.323,3.976-1.132,5.539-2.306L35.681,28.661z"/>
		<path style="fill:#ACBDF9;" d="M39.471,24.078l-5.567-2.929c-0.45,0.91-1.102,1.695-1.896,2.291l3.673,5.22l0.003,0.003
			c1.588-1.193,2.893-2.763,3.792-4.583L39.471,24.078z"/>
		<path style="fill:#FB6969;" d="M40.225,14.226l-0.004,0.003l-5.942,1.994c0.197,0.628,0.304,1.298,0.304,1.995
			c0,0.344-0.026,0.562-0.076,0.891L40.679,20h0.002c0.1,0,0.152-1.213,0.152-1.901C40.833,16.706,40.62,15.483,40.225,14.226z"/>
		<path style="fill:#97DBF5;" d="M37.174,9.089l-0.001,0.003l-4.418,4.562c0.689,0.712,1.217,1.589,1.525,2.57l5.942-1.994
			l0.004-0.003C39.609,12.266,38.552,10.511,37.174,9.089z"/>
		<path style="fill:#C8D411;" d="M25.337,12.466C26.184,12.02,27,11.768,28,11.765V6c0,0,0.315,0,0.314,0
			c-2.038,0-3.969,0.164-5.667,1.058L22.58,6.89L25.337,12.466z"/>
		<path style="fill:#C7A6FF;" d="M30.712,12.466C29.866,12.02,29,11.768,28,11.765V6c0,0-0.216,0-0.216,0
			c2.038,0,3.969,0.164,5.667,1.058l0.043-0.168L30.712,12.466z"/>
		<path style="fill:#F75697;" d="M23.913,13.654l-4.418-4.562l-0.002-0.002c-1.378,1.423-2.436,3.177-3.051,5.138l0.004,0.003
			l5.942,1.994C22.695,15.243,23.224,14.365,23.913,13.654z"/>
		<path style="fill:#9ADB4B;" d="M22.083,18.218c0-0.696,0.107-1.367,0.304-1.995l-5.942-1.994l-0.004-0.003
			c-0.395,1.257-0.608,2.479-0.608,3.873c0,0.687,0.052,1.901,0.152,1.901h0.002l6.172-0.891
			C22.11,18.78,22.083,18.562,22.083,18.218z"/>
		<path style="fill:#36CDCA;" d="M24.659,23.441l-3.673,5.22c0,0,3.014,1.985,5.014,2.308v-0.002l1.167-6.373
			C26.17,24.432,25.44,24.028,24.659,23.441z"/>
		<path style="fill:#FF7D40;" d="M22.763,21.11L17.196,24h-0.005c0.899,2,2.204,3.431,3.793,4.624l0.002,0.017l3.673-5.23
			C23.865,22.815,23.212,22.02,22.763,21.11z"/>
	</symbol>
	<symbol id="wheel_gray" viewBox="0 0 56 36">
		<path style="fill:#93b1bf;" d="M35.681,28.661l-3.673-5.22c-0.781,0.587-1.844,0.991-2.841,1.153L30,30.967v0.002
			c2-0.323,3.976-1.132,5.539-2.306L35.681,28.661z"/>
		<path style="fill:#adcbd6;" d="M39.471,24.078l-5.567-2.929c-0.45,0.91-1.102,1.695-1.896,2.291l3.673,5.22l0.003,0.003
			c1.588-1.193,2.893-2.763,3.792-4.583L39.471,24.078z"/>
		<path style="fill:#93b1bf;" d="M40.225,14.226l-0.004,0.003l-5.942,1.994c0.197,0.628,0.304,1.298,0.304,1.995
			c0,0.344-0.026,0.562-0.076,0.891L40.679,20h0.002c0.1,0,0.152-1.213,0.152-1.901C40.833,16.706,40.62,15.483,40.225,14.226z"/>
		<path style="fill:#adcbd6;" d="M37.174,9.089l-0.001,0.003l-4.418,4.562c0.689,0.712,1.217,1.589,1.525,2.57l5.942-1.994
			l0.004-0.003C39.609,12.266,38.552,10.511,37.174,9.089z"/>
		<path style="fill:#93b1bf;" d="M25.337,12.466C26.184,12.02,27,11.768,28,11.765V6c0,0,0.315,0,0.314,0
			c-2.038,0-3.969,0.164-5.667,1.058L22.58,6.89L25.337,12.466z"/>
		<path style="fill:#adcbd6;" d="M30.712,12.466C29.866,12.02,29,11.768,28,11.765V6c0,0-0.216,0-0.216,0
			c2.038,0,3.969,0.164,5.667,1.058l0.043-0.168L30.712,12.466z"/>
		<path style="fill:#93b1bf;" d="M23.913,13.654l-4.418-4.562l-0.002-0.002c-1.378,1.423-2.436,3.177-3.051,5.138l0.004,0.003
			l5.942,1.994C22.695,15.243,23.224,14.365,23.913,13.654z"/>
		<path style="fill:#adcbd6;" d="M22.083,18.218c0-0.696,0.107-1.367,0.304-1.995l-5.942-1.994l-0.004-0.003
			c-0.395,1.257-0.608,2.479-0.608,3.873c0,0.687,0.052,1.901,0.152,1.901h0.002l6.172-0.891
			C22.11,18.78,22.083,18.562,22.083,18.218z"/>
		<path style="fill:#93b1bf;" d="M24.659,23.441l-3.673,5.22c0,0,3.014,1.985,5.014,2.308v-0.002l1.167-6.373
			C26.17,24.432,25.44,24.028,24.659,23.441z"/>
		<path style="fill:#adcbd6;" d="M22.763,21.11L17.196,24h-0.005c0.899,2,2.204,3.431,3.793,4.624l0.002,0.017l3.673-5.23
			C23.865,22.815,23.212,22.02,22.763,21.11z"/>
	</symbol>
	<symbol id="lens" viewBox="0 0 50 50">
		<path d="M20.834,0.01C9.332,0.01,0.008,9.334,0.008,20.836c0,11.502,9.324,20.826,20.826,20.826
			s20.826-9.324,20.826-20.826C41.661,9.334,32.336,0.01,20.834,0.01z M20.834,36.455c-8.626,0-15.62-6.993-15.62-15.62
			c0-8.626,6.993-15.62,15.62-15.62s15.62,6.993,15.62,15.62C36.454,29.462,29.461,36.455,20.834,36.455z"/>
		<path d="M48.718,48.587c-2.283,2.101-4.92,1.41-6.249,0.275s-8.47-8.51-9.226-9.178
			c3.628-2.49,4.197-3.002,6.389-6.423c0.997,1.086,8.347,8.217,9.226,9.178C49.737,43.4,51,46.486,48.718,48.587z"/>
	</symbol>
	<symbol id="my_country" viewBox="0 0 34 34">
		<path d="M17.003,5.99c-5.918,0-10.996,4.993-11.012,10.919c-0.016,5.96,4.893,11.04,10.88,11.08
			c6.011,0.04,11.031-4.829,11.118-10.843C28.078,11.106,23.063,5.99,17.003,5.99z M10.329,9.593c0.964,0.164-1.721,2.214-2.007,2.496
			C8.85,11.156,9.532,10.311,10.329,9.593C10.6,9.639,9.532,10.311,10.329,9.593z M7.021,17.003c0-0.258-0.128-2.183,0.422-2.007
			c-0.378,1.521,0.199,1.625,1.109,2.652c0.462,0.522,0.847,1.125,1.127,1.763c0.232,0.527-0.567,1.188-0.409,1.784
			c0.253,0.978,1.775,2.022,2.573,2.536c0.348,0.224,0.471,1.062,0.691,1.405c0.388,0.604,1.032,0.904,1.526,1.397
			C9.942,25.275,7.021,21.302,7.021,17.003z M25.87,21.057c-0.607,2.187-2.398,3.86-4.379,4.849c-0.607,0.303-5.91,2.174-6.067,0.589
			c-0.066-0.667,2.146-1.577,2.114-2.461c-0.019-0.514,1.336-1.644,0.278-1.895c-1.087-0.258-2.08-1.022-3.153-0.761
			c0.52-0.474-1.91-2.286-2.384-2.507c-0.64-0.298-1.549-0.141-2.016-0.323c-1.673-0.652-0.681-1.262-1.067-2.198
			c-0.138-0.334-0.588,0.216-0.712,0.196c-0.347-0.057-0.057-1.793,0.792-1.531c0.541,0.167,1.222,1.528,1.168,1.528
			c-0.227,0.047-0.604-0.334-0.916-0.248c-0.153,0.042,0.9,1.196,1.337,1.004c0.375-0.165-0.067-0.827-0.395-0.762
			c0.405-0.057,0.708-1.123,1.194-1.431c0.721,0.016,2.178-1.062,2.992-1.286c0.539-0.148,0.957-1.223,1.301-0.485
			c0.138,0.323,0.946-1.211,0.926-1.236c-1.056-1.313-1.633-1.58-3.222,0.097c-1.054-2.362,2.499-1.207,2.63-1.404
			c0.203-0.304,1.078,0.125,0.771-0.678c-0.177-0.462-0.79-1.107-1.364-0.868c-0.018-0.263,0.232-0.827,0.22-0.925
			c-0.034-0.286-0.848-0.033-0.787,0.144c0.101,0.076,0.215,0.126,0.34,0.149c-0.254,0.133-1.36-0.282-1.013,0.41
			c-0.13-0.06-0.233-0.151-0.308-0.274c-0.22-0.094-0.658,0.788-0.38,0.969c-0.395,0.01-0.964-0.765-1.014-0.809
			c-0.41-0.355-0.682-0.149-1.064-0.34c3.108-1.973,7.236-2.026,10.397-0.142c-0.737,0.379-1.066-0.153-0.401,0.816
			c0.309,0.45,1.368,1.286,1.162,1.798c-0.21-0.077-1.868-0.919-1.147,0.454c0.196-0.067,1.031,0.684,1.279,0.943
			c-0.808,0.125-1.089,1.101-0.118,1.441c1.34,0.47,0.712-1.336,1.184-1.531c0.048-0.02,1.533,0.53,1.376,0.42
			c0.509,0.355,0.199-0.46,0.628,0.061c0.438,0.531-0.267,0.39-0.408,0.908c-0.525-0.28-4.028,3.085-3.82,3.257
			c0.343,0.284,0.489,3.806,2.111,2.753C25.709,18.592,26.012,19.239,25.87,21.057C25.121,23.755,25.901,20.657,25.87,21.057z
			 M12.395,12.96c-0.195-0.138-0.386-0.281-0.575-0.427c0.345-0.262,1.312,0.613,0.26,0.966C12.209,13.334,12.315,13.155,12.395,12.96
			C12.4,12.977,12.42,13.045,12.395,12.96z M12.073,17.556c0.282,0.42-0.56,0.398-0.763,0.189
			C10.576,16.992,11.766,16.86,12.073,17.556C12.159,17.684,11.931,17.234,12.073,17.556z M19.947,9.758
			c-0.568,0.738-2.237,2.294-2.346,0.43c0.71-1.385-1.28-0.71-1.587-1.089c0.024,0.03,1.181-1.636,1.546-0.902
			C18.463,7.476,20.815,8.67,19.947,9.758C19.69,10.092,20.202,9.438,19.947,9.758z M20.873,10.082c0,0.39-0.525,0.561-0.816,0.357
			C19.367,9.956,20.862,9.746,20.873,10.082z M20.873,10.082"/>
	</symbol>
	<symbol id="my_region" viewBox="0 0 34 34">
		<path d="M12.98,15.32c0.537-0.102,1.128-0.182,1.774-0.24c0.645-0.057,1.287-0.086,1.927-0.086
			c0.664,0,1.332,0.055,2.003,0.163c0.671,0.109,1.275,0.326,1.812,0.652c0.536,0.326,0.974,0.78,1.313,1.361
			c0.339,0.582,0.508,1.339,0.508,2.272c0,0.844-0.147,1.557-0.441,2.138c-0.294,0.582-0.684,1.058-1.169,1.429
			c-0.486,0.371-1.039,0.639-1.659,0.805c-0.62,0.166-1.262,0.249-1.927,0.249c-0.063,0-0.166,0-0.306,0
			c-0.141,0-0.288-0.002-0.441-0.009c-0.154-0.007-0.304-0.016-0.451-0.029c-0.147-0.012-0.252-0.025-0.316-0.038v3.052l-2.627-0.001
			V15.32z M16.891,17.256c-0.256,0-0.499,0.01-0.729,0.029c-0.23,0.019-0.416,0.042-0.556,0.067v4.353
			c0.05,0.012,0.128,0.025,0.23,0.038c0.103,0.012,0.211,0.022,0.326,0.028c0.115,0.007,0.226,0.01,0.335,0.01
			c0.108,0,0.188,0,0.239,0c0.345,0,0.687-0.032,1.025-0.096c0.339-0.063,0.642-0.182,0.911-0.355
			c0.269-0.173,0.483-0.412,0.642-0.719c0.16-0.307,0.239-0.709,0.239-1.208c0-0.422-0.077-0.77-0.23-1.045
			c-0.154-0.275-0.355-0.495-0.604-0.661c-0.249-0.166-0.534-0.281-0.853-0.345C17.549,17.288,17.223,17.256,16.891,17.256z"/>
		<path d="M29.362,16.733l-3.397-2.823V7.581c0-0.145-0.046-0.264-0.139-0.357
			c-0.093-0.093-0.212-0.139-0.357-0.139h-2.978c-0.145,0-0.264,0.046-0.357,0.139c-0.093,0.093-0.139,0.212-0.139,0.357v3.025
			L18.21,7.441c-0.331-0.269-0.724-0.404-1.179-0.404c-0.456,0-0.848,0.135-1.179,0.404L4.698,16.733
			c-0.103,0.083-0.16,0.193-0.17,0.333c-0.01,0.139,0.026,0.261,0.109,0.365l0.961,1.147c0.083,0.093,0.192,0.151,0.325,0.171
			c0.125,0.01,0.249-0.026,0.373-0.109L17.03,9.69l10.735,8.951c0.083,0.073,0.191,0.109,0.325,0.109h0.047
			c0.134-0.02,0.242-0.078,0.325-0.171l0.962-1.148c0.082-0.103,0.119-0.225,0.108-0.364C29.523,16.927,29.465,16.816,29.362,16.733
			L29.362,16.733z M29.362,16.733"/>
	</symbol>
	<symbol id="my_city" viewBox="0 0 34 34">
		<path d="M17.03,11.016l-8.963,7.39c0,0.01-0.002,0.026-0.007,0.047c-0.005,0.021-0.007,0.035-0.007,0.047
			v7.482c0,0.27,0.098,0.504,0.296,0.701c0.197,0.198,0.431,0.297,0.701,0.297h5.986v-5.986h3.991v5.986h5.986
			c0.27,0,0.504-0.099,0.701-0.296c0.198-0.197,0.297-0.432,0.297-0.702v-7.482c0-0.042-0.006-0.073-0.016-0.093L17.03,11.016z
			 M17.03,11.016"/>
		<path d="M29.422,16.722l-3.414-2.837v-6.36c0-0.146-0.047-0.265-0.14-0.359
			c-0.094-0.093-0.213-0.14-0.359-0.14h-2.992c-0.146,0-0.265,0.047-0.359,0.14c-0.093,0.094-0.14,0.213-0.14,0.359v3.04l-3.803-3.18
			c-0.333-0.27-0.728-0.406-1.185-0.406c-0.458,0-0.852,0.136-1.185,0.406L4.637,16.722c-0.104,0.083-0.161,0.194-0.171,0.335
			c-0.01,0.14,0.026,0.263,0.109,0.367l0.966,1.153c0.083,0.094,0.193,0.151,0.327,0.172c0.125,0.01,0.25-0.026,0.375-0.109
			L17.03,9.645l10.788,8.995c0.083,0.073,0.192,0.109,0.327,0.109h0.048c0.134-0.021,0.243-0.078,0.327-0.172l0.967-1.154
			c0.082-0.104,0.12-0.226,0.108-0.366C29.584,16.917,29.526,16.805,29.422,16.722L29.422,16.722z M29.422,16.722"/>
	</symbol>
	<symbol id="close" viewBox="0 0 18 18">
		<path d="M13.223,8.982c1.513-1.513,2.755-2.755,3.084-3.082c2.595-2.591,0.464-4.721,0.464-4.721
		s-2.115-2.115-4.707,0.478c-0.19,0.19-1.478,1.478-3.082,3.083C7.467,3.224,6.232,1.99,5.936,1.693
		C3.255-0.992,1.215,1.229,1.215,1.229S-0.9,3.344,1.694,5.936C1.99,6.231,3.226,7.467,4.741,8.982
		c-1.515,1.515-2.751,2.751-3.047,3.046c-2.594,2.592-0.478,4.707-0.478,4.707s2.04,2.221,4.721-0.464
		c0.296-0.296,1.53-1.531,3.046-3.047c1.604,1.604,2.892,2.892,3.082,3.083c2.591,2.594,4.707,0.478,4.707,0.478
		s2.13-2.13-0.464-4.721C15.979,11.737,14.736,10.495,13.223,8.982z"/>
	</symbol>
	<symbol id="profile_icon" viewBox="0 0 60 60">
		<path d="M16.391,18.689c0-4.47,3.055-13.045,13.614-14.04c9.745,0.798,13.787,7.994,13.589,14.04
			c0.099,6.964-6.17,17.904-13.681,17.904S16.193,25.455,16.391,18.689z"/>
		<path d="M0.009,52.058c0.414-5.707,15.593-12.705,29.904-13.493C46.255,39.747,60,47.021,60,52.058
			c-0.636,6.022-13.311,7.294-30.087,7.294S-0.405,57.765,0.009,52.058z"/>
	</symbol>
	<symbol id="plashka_sett" viewBox="0 0 18 18">
		<path d="M17.344,7.598h-1.245c-0.063-0.325-0.146-0.641-0.251-0.949l1.102-0.617
			c0.294-0.165,0.4-0.537,0.235-0.832l-0.748-1.335c-0.165-0.294-0.537-0.4-0.832-0.235L14.481,4.26
			c-0.229-0.266-0.477-0.516-0.742-0.746l0.614-1.036c0.172-0.29,0.076-0.665-0.214-0.837L12.823,0.86
			c-0.29-0.172-0.665-0.076-0.837,0.214l-0.63,1.063c-0.332-0.115-0.676-0.205-1.028-0.271V0.611C10.328,0.274,10.054,0,9.717,0
			h-1.53C7.849,0,7.575,0.274,7.575,0.611v1.273C7.24,1.951,6.913,2.042,6.596,2.153l-0.64-1.079C5.783,0.784,5.408,0.688,5.118,0.86
			L3.802,1.641c-0.29,0.172-0.386,0.547-0.214,0.837l0.634,1.069C3.971,3.769,3.734,4.008,3.515,4.262
			c-0.017-0.011-0.034-0.021-0.052-0.03L2.301,3.628c-0.299-0.156-0.668-0.039-0.824,0.26L0.771,5.246
			C0.616,5.545,0.732,5.914,1.032,6.07l1.119,0.582c-0.104,0.307-0.187,0.623-0.25,0.946H0.656c-0.337,0-0.611,0.274-0.611,0.611
			v1.53c0,0.337,0.274,0.611,0.611,0.611h1.245c0.066,0.345,0.157,0.68,0.271,1.006l-1.117,0.625c-0.294,0.165-0.4,0.537-0.235,0.832
			l0.748,1.335c0.165,0.294,0.537,0.4,0.832,0.235l1.143-0.64c0.005-0.003,0.01-0.006,0.015-0.009
			c0.236,0.269,0.491,0.521,0.764,0.752c-0.004,0.007-0.009,0.013-0.013,0.02l-0.668,1.127c-0.172,0.29-0.076,0.665,0.214,0.837
			l1.316,0.781c0.29,0.172,0.665,0.076,0.837-0.214l0.668-1.127c0.014-0.024,0.026-0.05,0.037-0.075
			c0.281,0.094,0.569,0.17,0.864,0.229c0,0.005-0.001,0.01-0.001,0.015v1.31C7.575,17.726,7.849,18,8.186,18h1.53
			c0.337,0,0.611-0.274,0.611-0.611v-1.307c0.334-0.062,0.659-0.147,0.975-0.253c0.005,0.01,0.01,0.019,0.015,0.029l0.668,1.127
			c0.172,0.29,0.547,0.386,0.837,0.214l1.316-0.781c0.29-0.172,0.386-0.547,0.214-0.837l-0.658-1.11
			c0.249-0.213,0.484-0.443,0.702-0.687c0.005,0.003,0.009,0.006,0.014,0.009l1.143,0.64c0.294,0.165,0.667,0.06,0.832-0.235
			l0.748-1.335c0.165-0.294,0.06-0.667-0.235-0.832l-1.094-0.612c0.124-0.345,0.222-0.702,0.293-1.069h1.245
			c0.337,0,0.611-0.274,0.611-0.611v-1.53C17.955,7.871,17.681,7.598,17.344,7.598z M9,13.556c-2.531,0-4.583-2.052-4.583-4.583
			S6.469,4.391,9,4.391s4.583,2.052,4.583,4.583S11.531,13.556,9,13.556z"/>
		<circle cx="9" cy="8.974" r="1.909"/>
	</symbol>
	<symbol id="plashka_servs" viewBox="0 0 18 18">
		<path d="M12.294,9.805c-1.396-0.718-2.35-2.172-2.35-3.85c0-0.253,0.022-0.502,0.064-0.743
			c-3.806,0-8.2,0-8.615,0C0.668,5.212,0,5.908,0,6.61c0,0.229,0,1.134,0,2.273l7.403,1.449V9.789h2.188v0.54L12.294,9.805z"/>
		<path d="M14.432,10.278l-4.841,0.929v0.969H7.403v-0.968L0,9.777c0,2.222,0,4.845,0,5.246
			c0,0.679,0.696,1.344,1.371,1.344c0.675,0,13.569,0,14.274,0c0.705,0,1.398-0.696,1.398-1.398c0-0.414,0-2.995,0-5.192
			l-1.315,0.252C15.32,10.175,14.885,10.262,14.432,10.278z"/>
		<path d="M10.129,4.563h0.044c0.189-0.556,0.488-1.061,0.87-1.489V2.6c0,0,0-0.968-0.914-0.968
			c-0.914,0-2.291,0-3.226,0C5.969,1.632,5.962,2.6,5.962,2.6v1.962h0.941V3.396c0,0,0.02-0.796,0.746-0.796s1.087,0,1.784,0
			c0.696,0,0.696,0.796,0.696,0.796V4.563z"/>
		<path d="M14.469,2.325c-1.95,0-3.531,1.581-3.531,3.531s1.581,3.531,3.531,3.531S18,7.806,18,5.856
			S16.419,2.325,14.469,2.325z M14.744,7.654v0.659h-0.634V7.699c-0.433-0.019-0.853-0.136-1.099-0.278l0.194-0.756
			c0.272,0.149,0.653,0.284,1.073,0.284c0.369,0,0.621-0.142,0.621-0.401c0-0.246-0.207-0.401-0.685-0.562
			C13.522,5.753,13.05,5.43,13.05,4.803c0-0.569,0.401-1.015,1.093-1.151V3.037h0.634v0.569c0.433,0.019,0.724,0.11,0.937,0.213
			L15.526,4.55c-0.168-0.071-0.466-0.22-0.931-0.22c-0.42,0-0.556,0.181-0.556,0.362c0,0.213,0.226,0.349,0.776,0.556
			c0.769,0.272,1.08,0.627,1.08,1.209C15.895,7.033,15.488,7.524,14.744,7.654z"/>
	</symbol>
	<symbol id="plashka_adds" viewBox="0 0 18 18">
		<path d="M17.993,6.95c0,0,0.214-2.875-1.726-3.909c0.691,1.23,0.578,2.761,0.578,2.761v5.932
			c0,0,0.176,4.318-3.334,4.318c-2.649,0-9.854,0.034-10.43,0.037c-0.192-0.053-0.363-0.128-0.525-0.212
			c0.343,0.613,0.868,1.138,1.672,1.36c0.576-0.003,7.781-0.037,10.43-0.037c3.51,0,3.334-4.318,3.334-4.318S17.993,6.95,17.993,6.95
			z"/>
		<path d="M16.08,5.037c0,0,0.32-4.275-3.334-4.275c-3.654,0-5.957,0-9.523,0S0.01,5.037,0.01,5.037v5.901
			c0,0-0.222,3.688,2.306,4.386c0.576-0.003,7.781-0.037,10.43-0.037c3.51,0,3.334-4.318,3.334-4.318S16.08,5.037,16.08,5.037z
			 M3.071,4.218c0,0,0-0.777,0.765-0.777s1.937,0,2.69,0s0.753,0.777,0.753,0.777v2.296c0,0-0.012,0.753-0.765,0.753
			s-1.913,0-2.678,0S3.071,6.513,3.071,6.513V4.218z M13.131,12.241H3.315c-0.16,0-0.289-0.257-0.289-0.574
			c0-0.317,0.129-0.574,0.289-0.574h9.816c0.16,0,0.289,0.257,0.289,0.574C13.42,11.984,13.29,12.241,13.131,12.241z M13.131,9.563
			H3.315c-0.16,0-0.289-0.257-0.289-0.574c0-0.317,0.129-0.574,0.289-0.574h9.816c0.16,0,0.289,0.257,0.289,0.574
			C13.42,9.306,13.29,9.563,13.131,9.563z M13.283,6.884H8.659c-0.075,0-0.136-0.257-0.136-0.574s0.061-0.574,0.136-0.574h4.624
			c0.075,0,0.136,0.257,0.136,0.574C13.42,6.627,13.359,6.884,13.283,6.884z"/>
	</symbol>
	<symbol id="plashka_letter" viewBox="0 0 18 18">
		<path d="M17.945,3.543c0,0-8.004,7.032-8.949,6.907S0.028,3.529,0.028,3.529S-0.278,1.808,1.14,1.807
			s14.123-0.012,15.68-0.002S17.945,3.543,17.945,3.543z"/>
		<path d="M17.703,5.762c-1.334,1.163-7.859,6.808-8.707,6.696c-0.843-0.111-7.312-5.526-8.701-6.696H0V16.2
			h18V5.762H17.703z"/>
	</symbol>
	<symbol id="switcher_lines" viewBox="0 0 36 36">
		<rect x="7" y="7" width="5" height="5"/>
		<rect x="15" y="7" width="14" height="5"/>
		<rect x="7" y="15" width="5" height="6"/>
		<rect x="15" y="15" width="14" height="6"/>
		<rect x="7" y="24" width="5" height="5"/>
		<rect x="15" y="24" width="14" height="5"/>
	</symbol>
	<symbol id="switcher_taps" viewBox="0 0 36 36">
		<rect x="7" y="7" width="9" height="9"/>
		<rect x="20" y="7" width="9" height="9"/>
		<rect x="7" y="20" width="9" height="9"/>
		<rect x="20" y="20" width="9" height="9"/>
	</symbol>
	<symbol id="map_point" viewBox="0 0 12.22 16.193">
		<path d="M12.104,6.036c-0.033,1.338-0.458,2.528-1.25,3.608c-0.729,0.995-1.42,2.018-2.127,3.029
		c-0.732,1.046-1.463,2.092-2.195,3.138c-0.019,0.027-0.04,0.053-0.061,0.079c-0.232,0.278-0.537,0.28-0.76-0.007
		c-0.162-0.21-0.308-0.433-0.461-0.65c-1.26-1.8-2.516-3.603-3.781-5.399C1.102,9.313,0.743,8.792,0.513,8.193
		c-0.327-0.849-0.469-1.724-0.385-2.63C0.315,3.532,1.302,1.99,3.043,0.918c0.674-0.415,1.413-0.68,2.197-0.769
		c2.37-0.269,4.292,0.538,5.728,2.434c0.533,0.703,0.86,1.504,1.016,2.368C12.049,5.308,12.066,5.674,12.104,6.036z M6.089,3.252
		C4.738,3.23,3.486,4.329,3.484,5.831c-0.002,1.412,1.121,2.591,2.613,2.59c1.478-0.001,2.599-1.17,2.607-2.583
		C8.712,4.406,7.536,3.252,6.089,3.252z"/>
	</symbol>
    <symbol id="star_icon" viewBox="0 0 24 24">
		<polygon style="fill:#FBB200;stroke:#FFF602;stroke-miterlimit:10;" points="23.152,16.295 15.404,16.387 11.087,22.821
		8.606,15.481 1.152,13.364 7.366,8.735 7.076,0.992 13.399,5.472 20.673,2.804 18.366,10.201 "/>
	</symbol>
</svg>
